<svg width="177" height="27" viewBox="0 0 177 27" fill="none" xmlns="http://www.w3.org/2000/svg">
<path d="M39.151 2.07463C34.9675 2.18434 31.5177 5.92087 30.3077 10.7867C33.7189 11.7096 35.978 13.6714 36.1582 17.5435C36.2676 19.9829 34.6521 22.2157 31.9168 23.629C33.3263 25.5134 35.5982 26.6299 39.151 26.4879C46.353 26.1975 48.5027 22.3706 48.5027 15.6268C48.5027 8.88298 46.0119 2.07463 39.402 2.07463C39.3183 2.07463 39.2346 2.07463 39.1445 2.07463" fill="#9D9D9D"/>
<path d="M11.9905 17.6532C11.8553 21.422 17.6286 25.1908 24.8756 25.1908C27.6239 25.1908 30.0374 24.6035 31.9168 23.6355C30.2176 21.3639 29.7671 17.9694 29.8443 14.2909C29.8701 13.0842 30.031 11.9096 30.3077 10.7932C28.4734 10.2963 26.3109 10.1027 23.9553 10.0769C23.8652 10.0769 23.7751 10.0769 23.685 10.0769C15.5368 10.0769 12.1128 14.3297 11.9905 17.6532Z" fill="#9D9D9D"/>
<path d="M48.6636 5.12064C48.6636 8.03113 50.4078 9.74774 53.3684 9.74774C56.1295 9.74774 58.0732 8.03113 58.0732 5.12064C58.0732 2.21015 56.7988 0.5 53.3684 0.5C49.9379 0.5 48.6636 2.21661 48.6636 5.12064Z" fill="#9D9D9D"/>
<path d="M0 18.7567C0 21.0348 1.10058 22.5642 4.92364 22.5642C8.7467 22.5642 9.84728 21.0348 9.84728 18.7567C9.84728 16.4787 7.53671 12.3356 4.92364 12.3356C2.31057 12.3356 0 16.4787 0 18.7567Z" fill="#9D9D9D"/>
<path d="M50.9033 18.6083C50.9033 21.3187 53.3941 22.7514 62.9196 22.7514C69.5553 22.7514 74.8651 20.5572 74.9359 17.8468V17.7822C74.9101 14.5233 66.807 12.5227 60.2164 12.5227C53.6258 12.5227 50.9033 15.9043 50.9033 18.6083Z" fill="#9D9D9D"/>
<path d="M122.447 21.5575L123.529 18.789L124.623 21.5575H122.447ZM121.089 25.1069L121.829 23.2225H125.279L126.045 25.1069H128.253L124.385 16.1947H122.763L118.92 25.1069H121.089ZM111.847 25.1069H118.109V23.2935H113.804V21.48H117.659V19.6666H113.804V18.0017H117.884V16.1882H111.847V25.1069ZM105.565 17.8597H106.846C107.561 17.8597 108.365 17.9952 108.365 18.8922C108.365 19.8602 107.438 19.8861 106.724 19.8861H105.572V17.8597H105.565ZM103.609 25.1069H105.565V21.5446H106.531L108.391 25.1069H110.74L108.481 21.3445C109.736 21.1187 110.399 20.1506 110.399 18.9051C110.399 16.8271 108.867 16.2012 107.046 16.2012H103.609V25.1133V25.1069ZM94.669 20.654C94.669 18.9955 95.7632 17.7822 97.4301 17.7822C99.0971 17.7822 100.191 18.989 100.191 20.654C100.191 22.319 99.0971 23.5258 97.4301 23.5258C95.7632 23.5258 94.669 22.319 94.669 20.654ZM92.6352 20.654C92.6352 23.5129 94.6562 25.3392 97.4301 25.3392C100.204 25.3392 102.225 23.5129 102.225 20.654C102.225 17.7951 100.204 15.9688 97.4301 15.9688C94.6562 15.9688 92.6352 17.7951 92.6352 20.654ZM84.6866 25.1069H86.6432V20.8799L90.2603 25.1069H92.9956L88.7027 20.3378L92.6545 16.1947H90.0929L86.6432 19.8925V16.1947H84.6866V25.1069Z" fill="#9D9D9D"/>
<path d="M171.413 12.3162H177V10.5028H173.37V3.40404H171.413V12.3162ZM167.61 12.3162H169.566V3.40404H167.61V12.3162ZM166.4 4.48821C165.647 3.5202 164.392 3.17817 163.4 3.17817C160.626 3.17817 158.606 5.00448 158.606 7.86334C158.606 10.7222 160.626 12.5485 163.4 12.5485C164.617 12.5485 165.872 12.0581 166.612 10.9997L164.977 9.78001C164.578 10.3866 163.935 10.7351 163.143 10.7351C161.727 10.7351 160.633 9.52833 160.633 7.86334C160.633 6.19836 161.727 4.99158 163.207 4.99158C163.935 4.99158 164.501 5.25617 164.887 5.72081L166.393 4.48821H166.4ZM148.803 12.3162H150.76V5.97249H150.786L154.667 12.3162H157.228V3.40404H155.272V9.59931H155.246L151.468 3.40404H148.803V12.3162ZM146.988 3.40404H145.032V8.80554C145.032 9.90262 144.279 10.7287 143.249 10.7287C142.219 10.7287 141.453 9.89617 141.453 8.80554V3.40404H139.497V8.87653C139.497 10.9803 140.777 12.5421 143.249 12.5421C145.72 12.5421 146.988 10.9803 146.988 8.87653V3.40404ZM130.641 7.86334C130.641 6.20482 131.735 4.99158 133.402 4.99158C135.069 4.99158 136.163 6.19836 136.163 7.86334C136.163 9.52833 135.069 10.7351 133.402 10.7351C131.735 10.7351 130.641 9.52833 130.641 7.86334ZM128.607 7.86334C128.607 10.7222 130.628 12.5485 133.402 12.5485C136.176 12.5485 138.197 10.7222 138.197 7.86334C138.197 5.00448 136.176 3.17817 133.402 3.17817C130.628 3.17817 128.607 5.00448 128.607 7.86334ZM128.085 4.48821C127.332 3.5202 126.077 3.17817 125.086 3.17817C122.312 3.17817 120.291 5.00448 120.291 7.86334C120.291 10.7222 122.312 12.5485 125.086 12.5485C126.303 12.5485 127.558 12.0581 128.298 10.9997L126.663 9.78001C126.264 10.3866 125.62 10.7351 124.829 10.7351C123.413 10.7351 122.319 9.52833 122.319 7.86334C122.319 6.19836 123.413 4.99158 124.893 4.99158C125.62 4.99158 126.187 5.25617 126.573 5.72081L128.079 4.48821H128.085ZM115.335 4.10746C114.582 3.44276 113.617 3.17817 112.613 3.17817C110.869 3.17817 109.221 4.17199 109.221 6.07575C109.221 9.04432 113.392 8.16666 113.392 9.79937C113.392 10.4318 112.677 10.7287 112.034 10.7287C111.39 10.7287 110.727 10.4124 110.328 9.88326L108.938 11.4192C109.781 12.2 110.785 12.5421 111.924 12.5421C113.759 12.5421 115.348 11.5999 115.348 9.61222C115.348 6.48877 111.255 7.53422 111.255 5.91441C111.255 5.24971 112.021 4.99803 112.574 4.99803C113.051 4.99803 113.681 5.18518 113.99 5.59174L115.335 4.12036V4.10746ZM103.982 12.3162H105.939V5.14H108.475V3.40404H101.446V5.14H103.982V12.3162ZM95.9112 5.06902H97.192C97.9064 5.06902 98.7109 5.20454 98.7109 6.10156C98.7109 7.06957 97.7841 7.09539 97.0697 7.09539H95.9176V5.06902H95.9112ZM93.9546 12.3162H95.9112V8.75391H96.8766L98.7367 12.3162H101.086L98.8268 8.55386C100.082 8.32799 100.745 7.35998 100.745 6.11447C100.745 4.03647 99.2129 3.41049 97.3915 3.41049H93.9546V12.3227V12.3162ZM87.216 8.76682L88.2973 5.99831L89.3914 8.76682H87.216ZM85.8515 12.3162L86.5917 10.4318H90.0414L90.8073 12.3162H93.0149L89.1468 3.40404H87.5249L83.6826 12.3162H85.8515Z" fill="#9D9D9D"/>
</svg>
