<?xml version="1.0" standalone="no"?>
<!DOCTYPE svg PUBLIC "-//W3C//DTD SVG 20010904//EN"
 "http://www.w3.org/TR/2001/REC-SVG-20010904/DTD/svg10.dtd">
<svg version="1.0" xmlns="http://www.w3.org/2000/svg"
 width="1486.000000pt" height="1486.000000pt" viewBox="0 0 1486.000000 1486.000000"
 preserveAspectRatio="xMidYMid meet">
<metadata>
Created by potrace 1.14, written by Peter Selinger 2001-2017
</metadata>
<g transform="translate(0.000000,1486.000000) scale(0.100000,-0.100000)"
fill="#000000" stroke="none">
<path d="M11008 10553 c-10 -3 -24 -27 -36 -62 l-19 -57 93 -48 c56 -28 116
-69 149 -100 l55 -52 -2 -924 -3 -925 -100 -17 c-343 -58 -999 -125 -1563
-159 -201 -12 -650 -7 -734 9 -43 8 -47 7 -57 -15 -6 -13 -11 -32 -11 -43 0
-29 163 -151 314 -235 l69 -38 106 26 c112 28 175 36 481 62 365 32 939 112
1291 181 98 19 186 37 194 40 13 5 15 -27 15 -271 0 -267 14 -662 28 -775 l7
-55 97 -3 96 -3 26 108 c29 122 60 333 75 503 16 178 17 2716 2 2734 -26 31
-290 98 -436 111 -39 3 -81 7 -95 9 -14 2 -33 1 -42 -1z"/>
<path d="M7950 10294 l-85 -35 -686 -6 c-514 -5 -717 -3 -813 7 -139 13 -139
13 -153 -39 -5 -19 0 -30 23 -48 55 -45 132 -93 215 -134 l84 -42 106 22 c160
33 297 41 709 40 l375 0 -64 -60 c-309 -288 -901 -619 -1541 -861 -84 -32
-158 -62 -163 -67 -11 -11 41 -91 59 -91 24 0 185 40 344 85 313 89 593 193
862 322 l156 75 554 -161 c665 -192 645 -188 693 -165 41 19 65 58 65 107 0
63 -51 103 -228 181 -79 34 -88 36 -193 36 -103 0 -125 4 -337 61 -125 33
-244 65 -265 70 l-39 10 107 70 c179 116 342 247 490 391 121 118 139 139 129
155 -6 10 -55 38 -110 62 -133 60 -179 63 -294 15z"/>
<path d="M4764 10303 c-12 -9 -44 -86 -44 -106 0 -7 33 -29 73 -49 39 -20 91
-53 115 -73 l42 -37 0 -227 0 -228 -277 -6 c-153 -4 -430 -7 -615 -7 l-338 0
0 248 c0 136 -4 253 -9 260 -18 29 -489 84 -530 62 -10 -5 -22 -26 -25 -45 -4
-20 -9 -42 -12 -49 -3 -7 28 -29 78 -54 46 -24 97 -55 115 -70 l31 -27 11
-655 c9 -542 13 -667 27 -723 l16 -68 106 3 107 3 30 62 30 62 207 0 c113 1
213 4 222 7 14 6 16 -30 16 -354 l0 -360 -102 -7 c-57 -4 -350 -5 -653 -2
-419 4 -569 8 -628 19 l-78 15 -15 -29 c-8 -16 -12 -38 -9 -49 10 -31 155
-133 270 -190 l102 -51 159 32 c135 27 193 33 384 41 407 16 1921 29 2125 19
l190 -10 31 33 c41 44 62 124 42 163 -16 35 -58 48 -233 74 -184 28 -238 26
-322 -10 l-70 -29 -404 -10 c-222 -6 -414 -11 -426 -11 l-23 0 0 360 0 360
424 0 424 0 12 30 c7 16 13 53 14 82 l1 52 -52 19 c-60 22 -59 18 -37 127 11
55 17 199 24 535 14 758 14 745 -1 760 -40 40 -491 132 -525 108z m186 -1216
l0 -284 -317 -6 c-174 -4 -453 -7 -620 -7 l-303 0 0 173 c0 94 3 223 7 284 l6
113 451 3 c248 1 524 3 614 5 l162 2 0 -283z"/>
<path d="M9790 10070 c-82 -12 -218 -54 -290 -90 -176 -89 -306 -245 -356
-431 -24 -86 -24 -252 0 -339 55 -204 209 -373 414 -456 187 -75 396 -91 599
-44 166 39 291 109 401 224 118 124 175 270 175 446 0 173 -57 321 -171 442
-113 119 -219 180 -391 224 -107 27 -279 38 -381 24z m260 -256 c130 -29 237
-113 291 -229 80 -171 53 -377 -67 -506 -91 -97 -197 -139 -350 -139 -201 0
-360 101 -425 270 -27 70 -36 208 -19 281 58 247 301 385 570 323z"/>
<path d="M7072 9192 c-11 -8 -46 -102 -40 -107 2 -2 26 -14 55 -29 29 -14 68
-40 88 -57 l35 -31 0 -158 0 -157 -77 -7 c-119 -10 -1086 -7 -1198 4 -55 6
-127 13 -161 16 -61 6 -61 6 -73 -25 -7 -17 -11 -37 -8 -44 10 -27 169 -137
271 -188 l103 -51 159 32 c211 42 317 47 1384 60 620 8 939 8 1094 1 203 -10
221 -9 239 7 54 48 77 160 42 196 -27 27 -168 56 -362 76 l-101 10 -75 -35
-74 -34 -394 -11 c-217 -5 -405 -10 -418 -10 l-24 0 7 163 c3 89 10 193 15
231 5 38 7 75 4 82 -3 8 -22 18 -43 24 -106 29 -424 58 -448 42z"/>
<path d="M6260 8116 c-5 -15 -11 -41 -13 -57 -2 -28 2 -31 70 -58 40 -16 95
-43 123 -61 l50 -32 0 -244 c0 -219 2 -249 20 -297 32 -86 87 -126 200 -147
70 -13 151 -60 195 -112 l25 -30 0 -1269 c0 -1164 6 -1541 28 -1789 l7 -75 96
-3 96 -3 11 39 c21 68 52 233 74 387 21 145 22 191 27 1487 5 1010 9 1340 18
1349 9 9 158 13 565 17 321 2 561 9 571 14 46 24 78 188 43 217 -21 18 -115
31 -267 38 l-137 6 -68 -37 -67 -37 -508 -6 c-393 -5 -514 -3 -537 6 -53 22
-55 43 -50 357 5 255 4 287 -11 305 -23 28 -149 47 -373 55 l-177 7 -11 -27z"/>
<path d="M9877 7393 c-9 -16 -39 -114 -36 -116 2 -1 40 -20 84 -42 47 -23 102
-61 133 -90 l52 -51 0 -551 c0 -304 -4 -554 -8 -557 -5 -3 -92 -6 -193 -6
l-184 -2 0 527 c0 514 0 527 -20 541 -47 35 -280 91 -416 101 l-85 6 -22 -58
c-12 -31 -22 -58 -22 -60 0 -2 32 -21 71 -41 39 -21 93 -57 120 -82 l49 -44 0
-783 0 -783 -87 -21 c-293 -67 -712 -124 -1024 -137 -120 -5 -147 -4 -164 9
-19 15 -20 27 -20 319 l0 303 150 6 c83 4 271 10 418 14 l268 7 13 27 c8 14
17 47 21 73 7 47 7 47 -37 78 l-44 31 23 132 c12 73 27 195 33 272 7 94 19
167 36 223 14 46 23 89 21 96 -8 19 -191 116 -220 116 -14 0 -60 -17 -103 -37
l-79 -38 -415 0 c-228 0 -447 4 -486 8 l-71 8 -13 -30 c-7 -17 -10 -37 -7 -45
7 -18 166 -137 228 -171 l49 -26 97 21 c91 21 334 38 556 39 l67 1 0 -280 0
-280 -24 -10 c-49 -18 -157 -23 -564 -24 l-416 -1 -11 -46 -12 -46 52 -22 c28
-12 70 -35 93 -52 l41 -30 3 -347 3 -347 29 -62 c36 -78 95 -134 166 -158 109
-36 445 -2 849 86 183 41 402 99 515 138 33 12 60 21 61 21 1 0 5 -125 9 -277
7 -280 21 -556 32 -625 l6 -38 88 0 88 0 20 83 c66 263 82 464 82 1025 l0 469
113 6 c61 4 149 7 195 7 l82 0 0 -692 c0 -623 7 -908 26 -1080 l6 -58 93 0 93
0 27 110 c30 126 59 320 74 490 8 83 18 2579 12 2727 -2 31 -165 84 -360 117
-100 17 -197 21 -204 9z"/>
<path d="M6035 6728 l-80 -42 -421 -4 c-279 -3 -455 0 -520 7 -133 15 -398 31
-422 25 -13 -4 -22 -21 -31 -56 -6 -28 -10 -52 -9 -53 2 -2 26 -14 53 -28 28
-14 69 -39 91 -55 l41 -30 7 -104 c4 -56 22 -359 41 -673 20 -337 41 -606 51
-657 l16 -88 99 0 99 0 19 38 c10 20 24 55 31 78 l12 41 271 6 c149 4 412 7
586 7 174 0 321 4 328 8 18 11 41 71 43 112 4 66 1 71 -45 91 -54 24 -52 7
-25 259 23 226 47 526 56 720 5 113 12 160 30 214 36 105 35 109 -43 154 -86
50 -139 72 -172 72 -14 -1 -62 -20 -106 -42z m-77 -800 l-3 -552 -44 -13 c-31
-9 -161 -15 -416 -20 l-372 -6 -6 279 c-4 153 -7 408 -7 566 l0 287 93 4 c50
1 242 4 425 5 l332 2 -2 -552z"/>
</g>
</svg>
